<svg width="765" height="568" viewBox="0 0 765 568" fill="none" xmlns="http://www.w3.org/2000/svg">
<rect width="765" height="568" rx="20" fill="white"/>
<rect x="20" y="28" width="725" height="26" rx="12" fill="#F8F8F9"/>
<mask id="path-3-inside-1_1182_96647" fill="white">
<path d="M20 90C20 83.3726 25.3726 78 32 78H733C739.627 78 745 83.3726 745 90V106C745 112.627 739.627 118 733 118H32C25.3726 118 20 112.627 20 106V90Z"/>
</mask>
<path d="M20 90C20 83.3726 25.3726 78 32 78H733C739.627 78 745 83.3726 745 90V106C745 112.627 739.627 118 733 118H32C25.3726 118 20 112.627 20 106V90Z" fill="#F8F8F9"/>
<path d="M20 78H745H20ZM745 106C745 113.18 739.18 119 732 119H33C25.8203 119 20 113.18 20 106C20 112.075 25.3726 117 32 117H733C739.627 117 745 112.075 745 106ZM20 118V78V118ZM745 78V118V78Z" fill="#EEF0F7" mask="url(#path-3-inside-1_1182_96647)"/>
<rect x="20" y="146" width="117" height="22" rx="11" fill="#F8F8F9"/>
<rect x="20" y="192" width="725" height="86" rx="11" fill="#F8F8F9"/>
<rect x="20" y="298" width="725" height="86" rx="11" fill="#F8F8F9"/>
<rect x="20" y="408" width="173" height="22" rx="11" fill="#F8F8F9"/>
<rect x="20" y="454" width="725" height="86" rx="11" fill="#F8F8F9"/>
</svg>
