<svg width="765" height="530" viewBox="0 0 765 530" fill="none" xmlns="http://www.w3.org/2000/svg">
<rect width="765" height="530" rx="20" fill="white"/>
<rect width="725" height="26" transform="translate(20 28)" fill="#F8F8F9"/>
<mask id="path-2-inside-1_1179_95476" fill="white">
<path d="M20 78H745V118H20V78Z"/>
</mask>
<path d="M20 78H745V118H20V78Z" fill="#F8F8F9"/>
<path d="M745 117H20V119H745V117Z" fill="#EEF0F7" mask="url(#path-2-inside-1_1179_95476)"/>
<rect x="20" y="142" width="178" height="178" rx="8" fill="#F8F8F9"/>
<rect x="202.333" y="142" width="178" height="178" rx="8" fill="#F8F8F9"/>
<rect x="384.667" y="142" width="178" height="178" rx="8" fill="#F8F8F9"/>
<rect x="567" y="142" width="178" height="178" rx="8" fill="#F8F8F9"/>
<rect x="20" y="324" width="178" height="178" rx="8" fill="#F8F8F9"/>
<rect x="202.333" y="324" width="178" height="178" rx="8" fill="#F8F8F9"/>
<rect x="384.667" y="324" width="178" height="178" rx="8" fill="#F8F8F9"/>
<rect x="567" y="324" width="178" height="178" rx="8" fill="#F8F8F9"/>
</svg>
