<svg width="765" height="576" viewBox="0 0 765 576" fill="none" xmlns="http://www.w3.org/2000/svg">
<g clip-path="url(#clip0_1182_96491)">
<rect width="765" height="170" fill="#CCCFDA"/>
</g>
<path d="M0 134H765V556C765 567.046 756.046 576 745 576H20C8.9543 576 0 567.046 0 556V134Z" fill="white"/>
<rect x="20" y="236" width="725" height="32" rx="12" fill="#F8F8F9"/>
<rect x="20" y="284" width="503" height="20" rx="10" fill="#F8F8F9"/>
<rect x="20" y="320" width="442" height="22" rx="11" fill="#F8F8F9"/>
<rect x="20" y="370" width="54" height="34" rx="8" fill="#F8F8F9"/>
<rect x="82" y="370" width="48" height="34" rx="8" fill="#F8F8F9"/>
<rect x="138" y="370" width="54" height="34" rx="8" fill="#F8F8F9"/>
<rect x="20" y="444" width="135" height="40" rx="10" fill="#F8F8F9"/>
<rect x="165" y="444" width="123" height="40" rx="10" fill="#F8F8F9"/>
<rect x="298" y="444" width="40" height="40" rx="10" fill="#F8F8F9"/>
<g clip-path="url(#clip1_1182_96491)">
<rect x="601" y="444" width="40" height="40" fill="#F8F8F9"/>
</g>
<g clip-path="url(#clip2_1182_96491)">
<rect x="653" y="444" width="40" height="40" fill="#F8F8F9"/>
</g>
<g clip-path="url(#clip3_1182_96491)">
<rect x="705" y="444" width="40" height="40" fill="#F8F8F9"/>
</g>
<rect x="20" y="80" width="140" height="140" rx="70" fill="#EEF0F7"/>
<mask id="path-20-inside-1_1182_96491" fill="white">
<path d="M20 524H745V576H20V524Z"/>
</mask>
<path d="M745 575H20V577H745V575Z" fill="#EEF0F7" mask="url(#path-20-inside-1_1182_96491)"/>
<rect x="30" y="532" width="96" height="20" rx="10" fill="#F8F8F9"/>
<mask id="path-23-inside-2_1182_96491" fill="white">
<path d="M152 524H229V576H152V524Z"/>
</mask>
<path d="M229 575H152V577H229V575Z" fill="#EEF0F7" mask="url(#path-23-inside-2_1182_96491)"/>
<rect x="162" y="532" width="57" height="20" rx="10" fill="#F8F8F9"/>
<rect x="676" y="148" width="73" height="36" rx="11" fill="#F8F8F9"/>
<defs>
<clipPath id="clip0_1182_96491">
<rect width="765" height="170" rx="20" fill="white"/>
</clipPath>
<clipPath id="clip1_1182_96491">
<rect x="601" y="444" width="40" height="40" rx="10" fill="white"/>
</clipPath>
<clipPath id="clip2_1182_96491">
<rect x="653" y="444" width="40" height="40" rx="10" fill="white"/>
</clipPath>
<clipPath id="clip3_1182_96491">
<rect x="705" y="444" width="40" height="40" rx="10" fill="white"/>
</clipPath>
</defs>
</svg>
