<svg xmlns="http://www.w3.org/2000/svg" width="40" height="40" fill="none"><rect width="40" height="40" fill="#EEF0F7" rx="10"/><path stroke="#06082C" stroke-linecap="round" stroke-linejoin="round" stroke-width="1.5" d="M27.326 20.506c.204-.174.305-.261.343-.365a.417.417 0 0 0 0-.282c-.038-.104-.14-.19-.343-.365l-7.059-6.05c-.35-.3-.525-.45-.673-.455a.416.416 0 0 0-.334.154c-.093.115-.093.345-.093.806v3.58a8.055 8.055 0 0 0-6.667 7.93v.51a9.502 9.502 0 0 1 6.667-3.41v3.491c0 .462 0 .692.093.807.082.1.205.157.334.154.148-.004.323-.154.673-.454l7.06-6.05Z"/></svg>